Coordinates
version=1
nRows=20
nColumns=23
inDegrees=yes

Units are S.I. units (second, meters, Newtons, ...)
If the header above contains a line with 'inDegrees', this indicates whether rotational values are in degrees (yes) or radians (no).

endheader
time	pelvis_tilt	pelvis_list	pelvis_rotation	pelvis_tx	pelvis_ty	pelvis_tz	hip_flexion_r	hip_adduction_r	hip_rotation_r	knee_angle_r	knee_angle_r_beta	ankle_angle_r	subtalar_angle_r	mtp_angle_r	hip_flexion_l	hip_adduction_l	hip_rotation_l	knee_angle_l	knee_angle_l_beta	ankle_angle_l	subtalar_angle_l	mtp_angle_l
     22.50000000	    -14.70339196	     -1.28071457	      0.64065397	      2.33281834	      0.99224902	      1.00929284	     42.64786396	      2.66145051	     -5.13162428	     13.80062395	      0.24086633	      7.10746143	      1.81207509	      0.00000000	    -11.50735757	     -2.02728484	     -3.96083850	     61.35692138	      1.07088030	    -14.46519603	    -16.38630049	      0.00000000
     22.50666667	    -14.59336674	     -1.03418416	      0.48424370	      2.33159646	      0.98834339	      1.00965009	     43.02836117	      2.50663789	     -5.04225039	     15.38426307	      0.26850604	      5.75878574	      1.00846758	      0.00000000	    -10.31380522	     -1.73922019	     -3.64044858	     66.38411800	      1.15862143	    -14.29401549	    -16.29172582	      0.00000000
     22.51333333	    -14.52680079	     -0.82376558	      0.17442602	      2.33003707	      0.98400300	      1.01009343	     43.67456985	      2.45031398	     -4.90813358	     17.90077712	      0.31242750	      4.28917788	     -0.17677593	      0.00000000	     -8.98045791	     -1.47754082	     -3.55356797	     71.39252092	      1.24603455	    -14.06428611	    -16.01304361	      0.00000000
     22.52000000	    -14.40783165	     -0.68478501	     -0.19770980	      2.32829863	      0.97927980	      1.01050445	     44.41741141	      2.42989793	     -4.92617508	     21.21453474	      0.37026348	      2.91682889	     -1.47806310	      0.00000000	     -7.61927564	     -1.30574739	     -3.60178768	     76.34139462	      1.33240869	    -13.69706049	    -15.61562348	      0.00000000
     22.52666667	    -14.19157773	     -0.60035014	     -0.61978599	      2.32646449	      0.97434547	      1.01086313	     45.09924117	      2.46920514	     -4.85701335	     25.06542505	      0.43747420	      1.96731604	     -2.85381579	      0.00000000	     -6.29584448	     -1.21370003	     -3.75437702	     81.16175193	      1.41653980	    -13.25797802	    -15.19013029	      0.00000000
     22.53333333	    -14.06582643	     -0.54789286	     -1.14730475	      2.32447348	      0.96901494	      1.01133284	     45.84042931	      2.62402730	     -4.58064231	     29.20761255	      0.50976901	      1.56507577	     -4.17362366	      0.00000000	     -4.79965822	     -1.18589177	     -4.03867384	     85.85859969	      1.49851526	    -12.70597762	    -14.75641607	      0.00000000
     22.54000000	    -13.82741251	     -0.61655674	     -1.67479084	      2.32250593	      0.96378581	      1.01178321	     46.29728657	      2.93221562	     -4.15875426	     33.36122271	      0.58226318	      1.90605916	     -5.44051443	      0.00000000	     -3.34826903	     -1.33920855	     -4.34967257	     90.38100414	      1.57744610	    -12.02869369	    -14.27101819	      0.00000000
     22.54666667	    -13.60134413	     -0.82954643	     -2.19909362	      2.32048398	      0.95867805	      1.01229570	     46.53248425	      3.43721388	     -3.61005580	     37.31852922	      0.65133121	      2.95726191	     -6.58188714	      0.00000000	     -1.79215172	     -1.71370265	     -4.64477155	     94.73321414	      1.65340650	    -11.24306766	    -13.76058224	      0.00000000
     22.55333333	    -13.41027709	     -1.20022466	     -2.71434880	      2.31845306	      0.95390787	      1.01288858	     46.50937706	      4.12685765	     -3.06284618	     40.91260492	      0.71405966	      4.58664461	     -7.47638332	      0.00000000	     -0.09306961	     -2.33358658	     -4.89409130	     98.89321934	      1.72601229	    -10.36778881	    -13.19010619	      0.00000000
     22.56000000	    -13.31489843	     -1.72271907	     -3.18143332	      2.31638449	      0.94955148	      1.01353575	     46.25435854	      4.96242375	     -2.57179481	     44.03006270	      0.76846956	      6.66246607	     -8.09509721	      0.00000000	      1.83361503	     -3.18642607	     -5.00839728	    102.84677912	      1.79501492	     -9.41351243	    -12.52780915	      0.00000000
     22.56666667	    -13.36929234	     -2.36524034	     -3.55109088	      2.31426399	      0.94572053	      1.01413789	     45.80987012	      5.83901459	     -2.25422610	     46.60960130	      0.81349101	      8.98782424	     -8.40579446	      0.00000000	      4.08994398	     -4.22545637	     -4.90248828	    106.58374076	      1.86023721	     -8.37700577	    -11.74835104	      0.00000000
     22.57333333	    -13.52949447	     -3.09513854	     -3.82124200	      2.31213391	      0.94250923	      1.01471007	     45.13128123	      6.72879423	     -2.07984116	     48.62341680	      0.84863872	     11.43236387	     -8.48445988	      0.00000000	      6.62785709	     -5.40981348	     -4.56253897	    110.04448605	      1.92063861	     -7.33957458	    -10.86316132	      0.00000000
     22.58000000	    -13.81246664	     -3.83489551	     -3.92675335	      2.30998880	      0.93995623	      1.01507203	     44.26031773	      7.48553589	     -2.10705090	     50.09488233	      0.87432064	     13.89479225	     -8.29976840	      0.00000000	      9.52314788	     -6.57036294	     -3.89945208	    113.20580120	      1.97581396	     -6.26463383	     -9.86499755	      0.00000000
     22.58666667	    -14.14319866	     -4.57827247	     -3.87476980	      2.30788811	      0.93812680	      1.01528916	     43.13509154	      8.13460721	     -2.28332529	     51.03052745	      0.89065072	     16.26715379	     -7.95205135	      0.00000000	     12.68598965	     -7.69553920	     -2.95522805	    116.01172803	      2.02478663	     -5.23446537	     -8.79215537	      0.00000000
     22.59333333	    -14.47763211	     -5.20754111	     -3.64756137	      2.30585705	      0.93699928	      1.01526361	     41.76739712	      8.54318067	     -2.59490788	     51.53121783	      0.89938942	     18.54641575	     -7.39201395	      0.00000000	     16.07482820	     -8.57630168	     -1.77919836	    118.41044568	      2.06665215	     -4.23805373	     -7.69140573	      0.00000000
     22.60000000	    -14.74787515	     -5.76437616	     -3.26163867	      2.30397653	      0.93663673	      1.01504314	     40.08312291	      8.79507696	     -3.00612285	     51.57108677	      0.90008526	     20.60325110	     -6.72722014	      0.00000000	     19.57040299	     -9.23783355	     -0.45149309	    120.36100559	      2.10069584	     -3.32677413	     -6.63225732	      0.00000000
     22.60666667	    -14.93459076	     -6.17485915	     -2.75097050	      2.30231354	      0.93698098	      1.01466317	     38.10365271	      8.85416959	     -3.46672021	     51.22685534	      0.89407729	     22.41203366	     -5.98390635	      0.00000000	     23.09042513	     -9.57820580	      0.88205388	    121.82099495	      2.12617746	     -2.49587440	     -5.69442928	      0.00000000
     22.61333333	    -15.06104852	     -6.41080170	     -2.14968396	      2.30086029	      0.93795347	      1.01411810	     35.88167472	      8.72422789	     -3.93303411	     50.53644446	      0.88202735	     23.94248107	     -5.14405891	      0.00000000	     26.59498578	     -9.56791231	      2.09804066	    122.78359863	      2.14297806	     -1.72288101	     -4.91001835	      0.00000000
     22.62000000	    -15.11164814	     -6.44118667	     -1.50745410	      2.29968819	      0.93952502	      1.01350886	     33.42796290	      8.44901033	     -4.28563972	     49.54716236	      0.86476112	     25.18913308	     -4.51513859	      0.00000000	     29.96586723	     -9.21177741	      3.06703636	    123.22191892	      2.15062820	     -1.03522774	     -4.47962459	      0.00000000
     22.62666667	    -15.27044331	     -6.36392071	     -0.84829074	      2.29879285	      0.94140344	      1.01282650	     30.94207718	      8.06176242	     -4.72676422	     48.24768352	      0.84208093	     25.97715245	     -3.63448969	      0.00000000	     33.36652511	     -8.63345059	      3.80622004	    123.20022904	      2.15024964	     -0.31093122	     -4.06577207	      0.00000000
